<svg xmlns="http://www.w3.org/2000/svg" width="1000" height="241" viewBox="0 0 1000 241">
  <metadata><?xpacket begin="﻿" id="W5M0MpCehiHzreSzNTczkc9d"?>
<x:xmpmeta xmlns:x="adobe:ns:meta/" x:xmptk="Adobe XMP Core 5.6-c142 79.160924, 2017/07/13-01:06:39        ">
   <rdf:RDF xmlns:rdf="http://www.w3.org/1999/02/22-rdf-syntax-ns#">
      <rdf:Description rdf:about=""/>
   </rdf:RDF>
</x:xmpmeta>
                                                                                                    
                                                                                                    
                                                                                                    
                                                                                                    
                                                                                                    
                                                                                                    
                                                                                                    
                                                                                                    
                                                                                                    
                                                                                                    
                                                                                                    
                                                                                                    
                                                                                                    
                                                                                                    
                                                                                                    
                                                                                                    
                                                                                                    
                                                                                                    
                                                                                                    
                                                                                                    
                           
<?xpacket end="w"?></metadata>
<defs>
    <style>
      .cls-1 {
        fill: #fff;
      }

      .cls-1, .cls-2 {
        fill-rule: evenodd;
      }

      .cls-2 {
        fill: #8781bd;
      }
    </style>
  </defs>
  <path id="Rectangle_2_copy" data-name="Rectangle 2 copy" class="cls-1" d="M64,0h936L935,241H0Z"/>
  <path id="Gallery" class="cls-2" d="M226.2,119.831h26.769l-6.617,29.978a69.569,69.569,0,0,1-17.044,2.406q-15.039,0-22.308-8.071t-7.269-25.315A80.375,80.375,0,0,1,206.6,85.693q6.865-15.389,18.949-23.712a47.2,47.2,0,0,1,27.421-8.322,52.063,52.063,0,0,1,16.142,2.406,89.064,89.064,0,0,1,14.839,6.417l11.53-25.165a88.435,88.435,0,0,0-41.107-9.926q-25.469,0-44.917,11.781T179.275,72.659q-10.73,21.708-10.728,48.576,0,27.573,14.137,42.31t40.1,14.738a170.521,170.521,0,0,0,24.313-1.654,137.875,137.875,0,0,0,24.915-6.267l16.242-76.4H231.811ZM370.572,161.74h0.4l-1.4,14.538h22.96L416.391,64.187H393.13l-5.715,14.337h-0.8a28.2,28.2,0,0,0-10.978-12.232,32.217,32.217,0,0,0-16.794-4.211q-14.038,0-25.767,9.876T314.125,99.829a100.713,100.713,0,0,0-7.219,37.849q0,19.25,8.472,29.927t23.21,10.678q18.547,0,31.984-16.543h0Zm-29.728-12.232q-3.36-4.41-3.358-13.234a79.028,79.028,0,0,1,3.659-23.461q3.659-11.829,9.826-19.05t12.983-7.219a12.564,12.564,0,0,1,10.177,4.662,17.862,17.862,0,0,1,3.86,11.78,80.482,80.482,0,0,1-3.91,26.018q-3.911,11.481-10.327,18.2t-13.335,6.718Q344.2,153.92,340.844,149.508ZM486.874,20.273H456.7L423.609,176.278h30.179Zm60.958,0H517.654L484.568,176.278h30.178Zm74.293,73.09q0,8.323-8.673,13.185t-24.213,4.862h-4.511a38.7,38.7,0,0,1,10.226-19.55q7.821-8.02,16.644-8.021,10.527,0,10.527,9.525h0Zm12.131,76.3V146.9a104.849,104.849,0,0,1-17.244,6.718,61.268,61.268,0,0,1-15.842,1.905q-9.624,0-14.788-5.264t-5.163-14.387v-2l0.2-2.106h5.113q31.08,0,47.825-10.176T651.1,92.661q0-14.235-9.926-22.408T613.5,62.081a58.419,58.419,0,0,0-31.983,8.973q-14.136,8.974-22.408,26.068a85.751,85.751,0,0,0-8.271,37.848q0,20.657,11.63,31.984t32.685,11.329q21.855,0,39.1-8.622h0Zm70.985-84.72h-0.6l2.106-20.754h-23.06L659.923,176.278H690.1l10.628-50.13Q704.437,109,713.211,99.829t20.4-9.174a29.787,29.787,0,0,1,10.026,1.6l6.618-29.076a34.649,34.649,0,0,0-9.625-1.1q-20.657,0-35.392,22.859h0Zm64.066,91.337-2.607,4.913q-5.414,10.125-11.78,14.938a23.848,23.848,0,0,1-14.789,4.813,63.585,63.585,0,0,1-11.63-1.3V223.7a47.56,47.56,0,0,0,14.738,1.905q30.681,0,48.426-33.287L859.842,64.187H827.057l-26.068,53.94a150.466,150.466,0,0,0-6.516,15.39q-2.407,6.869-4.412,11.981h-0.6a262.876,262.876,0,0,0-1.4-29.376l-5.615-51.935H752.864Z"/>
</svg>
