<svg xmlns="http://www.w3.org/2000/svg" width="1000" height="241" viewBox="0 0 1000 241">
  <metadata><?xpacket begin="﻿" id="W5M0MpCehiHzreSzNTczkc9d"?>
<x:xmpmeta xmlns:x="adobe:ns:meta/" x:xmptk="Adobe XMP Core 5.6-c142 79.160924, 2017/07/13-01:06:39        ">
   <rdf:RDF xmlns:rdf="http://www.w3.org/1999/02/22-rdf-syntax-ns#">
      <rdf:Description rdf:about=""/>
   </rdf:RDF>
</x:xmpmeta>
                                                                                                    
                                                                                                    
                                                                                                    
                                                                                                    
                                                                                                    
                                                                                                    
                                                                                                    
                                                                                                    
                                                                                                    
                                                                                                    
                                                                                                    
                                                                                                    
                                                                                                    
                                                                                                    
                                                                                                    
                                                                                                    
                                                                                                    
                                                                                                    
                                                                                                    
                                                                                                    
                           
<?xpacket end="w"?></metadata>
<defs>
    <style>
      .cls-1 {
        fill: #fff;
      }

      .cls-1, .cls-2 {
        fill-rule: evenodd;
      }

      .cls-2 {
        fill: #ff4081;
      }
    </style>
  </defs>
  <path id="Rectangle_2_copy" data-name="Rectangle 2 copy" class="cls-1" d="M64,0h936L935,241H0Z"/>
  <path id="Archive" class="cls-2" d="M228.016,194.278h29.778L243.055,47.1h-37.4l-76.8,147.183h32.083l17.245-34.891H225.61Zm-37.3-60.959,18.849-38.6q6.518-13.434,10.929-25.466v3.609q0,12.233,1,25.366l2.607,35.091H190.719Zm128.434-30.378h-0.6l2.106-20.754H297.6L273.835,194.278h30.179l10.627-50.13q3.708-17.145,12.483-26.319t20.4-9.174a29.78,29.78,0,0,1,10.026,1.605l6.617-29.076a34.649,34.649,0,0,0-9.625-1.1q-20.655,0-35.392,22.86h0Zm121.816,85.421V163.7a119.529,119.529,0,0,1-13.434,5.866A41.285,41.285,0,0,1,413.4,171.92q-8.121,0-12.683-4.863t-4.562-14.488a73.066,73.066,0,0,1,3.86-24.012q3.858-11.178,10.728-17.6a22,22,0,0,1,15.39-6.416,38.022,38.022,0,0,1,11.831,1.7q5.211,1.706,10.627,4.011l9.224-22.96a73.357,73.357,0,0,0-32.885-7.219,52.527,52.527,0,0,0-30.88,9.475q-13.536,9.475-21,26.87t-7.469,38.65q0,19.652,10.778,30.429t30.93,10.778a71.935,71.935,0,0,0,33.687-7.921h0ZM567,130.412a88.543,88.543,0,0,0,2.306-18.047q0-15.54-7.57-23.912t-21.406-8.372a33.119,33.119,0,0,0-17.645,4.662,53.957,53.957,0,0,0-13.836,12.382h-0.8q6.516-21.254,8.622-30.98t6.016-27.872H492.5L459.417,194.278H489.6l9.825-46.421q4.31-20.452,11.831-31.883T528,104.545q10.829,0,10.829,12.332a53.043,53.043,0,0,1-1.6,11.931l-13.735,65.47h30.178ZM627.153,68.25q9.224,0,13.635-4.963T645.2,50.3q0-5.814-3.81-8.923t-11.129-3.108q-8.722,0-13.485,4.462t-4.762,13.184q0,12.332,15.139,12.332h0ZM637.38,82.187H607.2L583.439,194.278h30.179ZM685.705,164.1q0-9.823-.7-23.16l-4.511-58.752H650.915l13.836,112.091h32.384L757.692,82.187H725.308l-29.777,59.554q-3.711,7.02-9.224,22.358h-0.6ZM826.17,111.362q0,8.324-8.673,13.185t-24.213,4.862h-4.511A38.7,38.7,0,0,1,799,109.859q7.821-8.02,16.644-8.021,10.527,0,10.527,9.524h0Zm12.131,76.3V164.9a104.815,104.815,0,0,1-17.244,6.718,61.266,61.266,0,0,1-15.841,1.905q-9.625,0-14.789-5.264t-5.163-14.387v-2l0.2-2.106h5.113q31.08,0,47.825-10.176t16.743-28.925q0-14.237-9.926-22.409t-27.671-8.171a58.42,58.42,0,0,0-31.984,8.973q-14.136,8.974-22.408,26.067a85.752,85.752,0,0,0-8.271,37.848q0,20.657,11.63,31.984T799.2,196.283q21.856,0,39.1-8.622h0Z"/>
</svg>
