<svg xmlns="http://www.w3.org/2000/svg" xmlns:xlink="http://www.w3.org/1999/xlink" width="426.667" height="240" viewBox="0 0 426.667 240">
  <defs>
    <filter id="Rectangle_182" x="15" y="20" width="96" height="42" filterUnits="userSpaceOnUse">
      <feOffset dy="2" input="SourceAlpha"/>
      <feGaussianBlur stdDeviation="1" result="blur"/>
      <feFlood flood-opacity="0.239"/>
      <feComposite operator="in" in2="blur"/>
      <feComposite in="SourceGraphic"/>
    </filter>
    <filter id="Rectangle_182-2" x="125" y="20" width="96" height="42" filterUnits="userSpaceOnUse">
      <feOffset dy="2" input="SourceAlpha"/>
      <feGaussianBlur stdDeviation="1" result="blur-2"/>
      <feFlood flood-opacity="0.239"/>
      <feComposite operator="in" in2="blur-2"/>
      <feComposite in="SourceGraphic"/>
    </filter>
    <filter id="Rectangle_182-3" x="60" y="74" width="96" height="42" filterUnits="userSpaceOnUse">
      <feOffset dy="2" input="SourceAlpha"/>
      <feGaussianBlur stdDeviation="1" result="blur-3"/>
      <feFlood flood-opacity="0.239"/>
      <feComposite operator="in" in2="blur-3"/>
      <feComposite in="SourceGraphic"/>
    </filter>
    <filter id="Rectangle_182-4" x="170" y="74" width="96" height="42" filterUnits="userSpaceOnUse">
      <feOffset dy="2" input="SourceAlpha"/>
      <feGaussianBlur stdDeviation="1" result="blur-4"/>
      <feFlood flood-opacity="0.239"/>
      <feComposite operator="in" in2="blur-4"/>
      <feComposite in="SourceGraphic"/>
    </filter>
    <filter id="Rectangle_182-5" x="60" y="182" width="96" height="42" filterUnits="userSpaceOnUse">
      <feOffset dy="2" input="SourceAlpha"/>
      <feGaussianBlur stdDeviation="1" result="blur-5"/>
      <feFlood flood-opacity="0.239"/>
      <feComposite operator="in" in2="blur-5"/>
      <feComposite in="SourceGraphic"/>
    </filter>
    <filter id="Rectangle_182-6" x="170" y="182" width="96" height="42" filterUnits="userSpaceOnUse">
      <feOffset dy="2" input="SourceAlpha"/>
      <feGaussianBlur stdDeviation="1" result="blur-6"/>
      <feFlood flood-opacity="0.239"/>
      <feComposite operator="in" in2="blur-6"/>
      <feComposite in="SourceGraphic"/>
    </filter>
    <filter id="Rectangle_182-7" x="15" y="128" width="96" height="42" filterUnits="userSpaceOnUse">
      <feOffset dy="2" input="SourceAlpha"/>
      <feGaussianBlur stdDeviation="1" result="blur-7"/>
      <feFlood flood-opacity="0.239"/>
      <feComposite operator="in" in2="blur-7"/>
      <feComposite in="SourceGraphic"/>
    </filter>
    <filter id="Rectangle_182-8" x="125" y="128" width="96" height="42" filterUnits="userSpaceOnUse">
      <feOffset dy="2" input="SourceAlpha"/>
      <feGaussianBlur stdDeviation="1" result="blur-8"/>
      <feFlood flood-opacity="0.239"/>
      <feComposite operator="in" in2="blur-8"/>
      <feComposite in="SourceGraphic"/>
    </filter>
    <filter id="Rectangle_182-9" x="235" y="20" width="96" height="42" filterUnits="userSpaceOnUse">
      <feOffset dy="2" input="SourceAlpha"/>
      <feGaussianBlur stdDeviation="1" result="blur-9"/>
      <feFlood flood-opacity="0.239"/>
      <feComposite operator="in" in2="blur-9"/>
      <feComposite in="SourceGraphic"/>
    </filter>
    <filter id="Rectangle_182-10" x="345" y="20" width="96" height="42" filterUnits="userSpaceOnUse">
      <feOffset dy="2" input="SourceAlpha"/>
      <feGaussianBlur stdDeviation="1" result="blur-10"/>
      <feFlood flood-opacity="0.239"/>
      <feComposite operator="in" in2="blur-10"/>
      <feComposite in="SourceGraphic"/>
    </filter>
    <filter id="Rectangle_182-11" x="280" y="74" width="96" height="42" filterUnits="userSpaceOnUse">
      <feOffset dy="2" input="SourceAlpha"/>
      <feGaussianBlur stdDeviation="1" result="blur-11"/>
      <feFlood flood-opacity="0.239"/>
      <feComposite operator="in" in2="blur-11"/>
      <feComposite in="SourceGraphic"/>
    </filter>
    <filter id="Rectangle_182-12" x="390" y="74" width="96" height="42" filterUnits="userSpaceOnUse">
      <feOffset dy="2" input="SourceAlpha"/>
      <feGaussianBlur stdDeviation="1" result="blur-12"/>
      <feFlood flood-opacity="0.239"/>
      <feComposite operator="in" in2="blur-12"/>
      <feComposite in="SourceGraphic"/>
    </filter>
    <filter id="Rectangle_182-13" x="280" y="182" width="96" height="42" filterUnits="userSpaceOnUse">
      <feOffset dy="2" input="SourceAlpha"/>
      <feGaussianBlur stdDeviation="1" result="blur-13"/>
      <feFlood flood-opacity="0.239"/>
      <feComposite operator="in" in2="blur-13"/>
      <feComposite in="SourceGraphic"/>
    </filter>
    <filter id="Rectangle_182-14" x="390" y="182" width="96" height="42" filterUnits="userSpaceOnUse">
      <feOffset dy="2" input="SourceAlpha"/>
      <feGaussianBlur stdDeviation="1" result="blur-14"/>
      <feFlood flood-opacity="0.239"/>
      <feComposite operator="in" in2="blur-14"/>
      <feComposite in="SourceGraphic"/>
    </filter>
    <filter id="Rectangle_182-15" x="235" y="128" width="96" height="42" filterUnits="userSpaceOnUse">
      <feOffset dy="2" input="SourceAlpha"/>
      <feGaussianBlur stdDeviation="1" result="blur-15"/>
      <feFlood flood-opacity="0.239"/>
      <feComposite operator="in" in2="blur-15"/>
      <feComposite in="SourceGraphic"/>
    </filter>
    <filter id="Rectangle_182-16" x="345" y="128" width="96" height="42" filterUnits="userSpaceOnUse">
      <feOffset dy="2" input="SourceAlpha"/>
      <feGaussianBlur stdDeviation="1" result="blur-16"/>
      <feFlood flood-opacity="0.239"/>
      <feComposite operator="in" in2="blur-16"/>
      <feComposite in="SourceGraphic"/>
    </filter>
    <filter id="Rectangle_182-17" x="-50" y="74" width="96" height="42" filterUnits="userSpaceOnUse">
      <feOffset dy="2" input="SourceAlpha"/>
      <feGaussianBlur stdDeviation="1" result="blur-17"/>
      <feFlood flood-opacity="0.239"/>
      <feComposite operator="in" in2="blur-17"/>
      <feComposite in="SourceGraphic"/>
    </filter>
    <filter id="Rectangle_182-18" x="-50" y="182" width="96" height="42" filterUnits="userSpaceOnUse">
      <feOffset dy="2" input="SourceAlpha"/>
      <feGaussianBlur stdDeviation="1" result="blur-18"/>
      <feFlood flood-opacity="0.239"/>
      <feComposite operator="in" in2="blur-18"/>
      <feComposite in="SourceGraphic"/>
    </filter>
    <clipPath id="clip-buttons_01">
      <rect width="426.667" height="240"/>
    </clipPath>
  </defs>
  <g id="buttons_01" clip-path="url(#clip-buttons_01)">
    <rect width="426.667" height="240" fill="#fff"/>
    <rect id="Rectangle_183" data-name="Rectangle 183" width="427" height="240" fill="#fff"/>
    <g id="Normal_Raised_Light" data-name="Normal Raised Light" transform="translate(18 21)">
      <g transform="matrix(1, 0, 0, 1, -18, -21)" filter="url(#Rectangle_182)">
        <rect id="Rectangle_182-19" data-name="Rectangle 182" width="90" height="36" rx="10" transform="translate(18 21)" fill="#363636"/>
      </g>
    </g>
    <g id="Normal_Raised_Light-2" data-name="Normal Raised Light" transform="translate(128 21)">
      <g transform="matrix(1, 0, 0, 1, -128, -21)" filter="url(#Rectangle_182-2)">
        <g id="Rectangle_182-20" data-name="Rectangle 182" transform="translate(128 21)" fill="#fff" stroke="#363636" stroke-width="3">
          <rect width="90" height="36" rx="10" stroke="none"/>
          <rect x="1.5" y="1.5" width="87" height="33" rx="8.5" fill="none"/>
        </g>
      </g>
    </g>
    <g id="Normal_Raised_Light-3" data-name="Normal Raised Light" transform="translate(63 75)">
      <g transform="matrix(1, 0, 0, 1, -63, -75)" filter="url(#Rectangle_182-3)">
        <rect id="Rectangle_182-21" data-name="Rectangle 182" width="90" height="36" rx="18" transform="translate(63 75)" fill="#363636"/>
      </g>
    </g>
    <g id="Normal_Raised_Light-4" data-name="Normal Raised Light" transform="translate(173 75)">
      <g transform="matrix(1, 0, 0, 1, -173, -75)" filter="url(#Rectangle_182-4)">
        <g id="Rectangle_182-22" data-name="Rectangle 182" transform="translate(173 75)" fill="#fff" stroke="#363636" stroke-width="3">
          <rect width="90" height="36" rx="18" stroke="none"/>
          <rect x="1.5" y="1.5" width="87" height="33" rx="16.5" fill="none"/>
        </g>
      </g>
    </g>
    <g id="Normal_Raised_Light-5" data-name="Normal Raised Light" transform="translate(63 183)">
      <g transform="matrix(1, 0, 0, 1, -63, -183)" filter="url(#Rectangle_182-5)">
        <path id="Rectangle_182-23" data-name="Rectangle 182" d="M10,0H90a0,0,0,0,1,0,0V26A10,10,0,0,1,80,36H0a0,0,0,0,1,0,0V10A10,10,0,0,1,10,0Z" transform="translate(63 183)" fill="#363636"/>
      </g>
    </g>
    <g id="Normal_Raised_Light-6" data-name="Normal Raised Light" transform="translate(173 183)">
      <g transform="matrix(1, 0, 0, 1, -173, -183)" filter="url(#Rectangle_182-6)">
        <g id="Rectangle_182-24" data-name="Rectangle 182" transform="translate(173 183)" fill="#fff" stroke="#363636" stroke-width="3">
          <path d="M0,0H80A10,10,0,0,1,90,10V36a0,0,0,0,1,0,0H10A10,10,0,0,1,0,26V0A0,0,0,0,1,0,0Z" stroke="none"/>
          <path d="M3,1.5H80A8.5,8.5,0,0,1,88.5,10V33A1.5,1.5,0,0,1,87,34.5H10A8.5,8.5,0,0,1,1.5,26V3A1.5,1.5,0,0,1,3,1.5Z" fill="none"/>
        </g>
      </g>
    </g>
    <g id="Normal_Raised_Light-7" data-name="Normal Raised Light" transform="translate(18 129)">
      <g transform="matrix(1, 0, 0, 1, -18, -129)" filter="url(#Rectangle_182-7)">
        <rect id="Rectangle_182-25" data-name="Rectangle 182" width="90" height="36" rx="10" transform="translate(18 129)" fill="#363636"/>
      </g>
    </g>
    <g id="Normal_Raised_Light-8" data-name="Normal Raised Light" transform="translate(128 129)">
      <g transform="matrix(1, 0, 0, 1, -128, -129)" filter="url(#Rectangle_182-8)">
        <g id="Rectangle_182-26" data-name="Rectangle 182" transform="translate(128 129)" fill="#fff" stroke="#363636" stroke-width="3">
          <rect width="90" height="36" rx="10" stroke="none"/>
          <rect x="1.5" y="1.5" width="87" height="33" rx="8.5" fill="none"/>
        </g>
      </g>
    </g>
    <g id="Normal_Raised_Light-9" data-name="Normal Raised Light" transform="translate(238 21)">
      <g transform="matrix(1, 0, 0, 1, -238, -21)" filter="url(#Rectangle_182-9)">
        <rect id="Rectangle_182-27" data-name="Rectangle 182" width="90" height="36" transform="translate(238 21)" fill="#363636"/>
      </g>
    </g>
    <g id="Normal_Raised_Light-10" data-name="Normal Raised Light" transform="translate(348 21)">
      <g transform="matrix(1, 0, 0, 1, -348, -21)" filter="url(#Rectangle_182-10)">
        <g id="Rectangle_182-28" data-name="Rectangle 182" transform="translate(348 21)" fill="#fff" stroke="#363636" stroke-width="3">
          <rect width="90" height="36" stroke="none"/>
          <rect x="1.5" y="1.5" width="87" height="33" fill="none"/>
        </g>
      </g>
    </g>
    <g id="Normal_Raised_Light-11" data-name="Normal Raised Light" transform="translate(283 75)">
      <g transform="matrix(1, 0, 0, 1, -283, -75)" filter="url(#Rectangle_182-11)">
        <path id="Rectangle_182-29" data-name="Rectangle 182" d="M0,0H70A20,20,0,0,1,90,20V36a0,0,0,0,1,0,0H20A20,20,0,0,1,0,16V0A0,0,0,0,1,0,0Z" transform="translate(283 75)" fill="#363636"/>
      </g>
    </g>
    <g id="Normal_Raised_Light-12" data-name="Normal Raised Light" transform="translate(393 75)">
      <g transform="matrix(1, 0, 0, 1, -393, -75)" filter="url(#Rectangle_182-12)">
        <g id="Rectangle_182-30" data-name="Rectangle 182" transform="translate(393 75)" fill="#fff" stroke="#363636" stroke-width="3">
          <path d="M20,0H90a0,0,0,0,1,0,0V16A20,20,0,0,1,70,36H0a0,0,0,0,1,0,0V20A20,20,0,0,1,20,0Z" stroke="none"/>
          <path d="M20,1.5H87A1.5,1.5,0,0,1,88.5,3V16A18.5,18.5,0,0,1,70,34.5H3A1.5,1.5,0,0,1,1.5,33V20A18.5,18.5,0,0,1,20,1.5Z" fill="none"/>
        </g>
      </g>
    </g>
    <g id="Normal_Raised_Light-13" data-name="Normal Raised Light" transform="translate(283 183)">
      <g transform="matrix(1, 0, 0, 1, -283, -183)" filter="url(#Rectangle_182-13)">
        <rect id="Rectangle_182-31" data-name="Rectangle 182" width="90" height="36" rx="15" transform="translate(283 183)" fill="#363636"/>
      </g>
    </g>
    <g id="Normal_Raised_Light-14" data-name="Normal Raised Light" transform="translate(393 183)">
      <g transform="matrix(1, 0, 0, 1, -393, -183)" filter="url(#Rectangle_182-14)">
        <g id="Rectangle_182-32" data-name="Rectangle 182" transform="translate(393 183)" fill="#fff" stroke="#363636" stroke-width="3">
          <rect width="90" height="36" rx="15" stroke="none"/>
          <rect x="1.5" y="1.5" width="87" height="33" rx="13.5" fill="none"/>
        </g>
      </g>
    </g>
    <g id="Normal_Raised_Light-15" data-name="Normal Raised Light" transform="translate(238 129)">
      <g transform="matrix(1, 0, 0, 1, -238, -129)" filter="url(#Rectangle_182-15)">
        <path id="Rectangle_182-33" data-name="Rectangle 182" d="M10,0H90a0,0,0,0,1,0,0V36a0,0,0,0,1,0,0H10A10,10,0,0,1,0,26V10A10,10,0,0,1,10,0Z" transform="translate(238 129)" fill="#363636"/>
      </g>
    </g>
    <g id="Normal_Raised_Light-16" data-name="Normal Raised Light" transform="translate(348 129)">
      <g transform="matrix(1, 0, 0, 1, -348, -129)" filter="url(#Rectangle_182-16)">
        <g id="Rectangle_182-34" data-name="Rectangle 182" transform="translate(348 129)" fill="#fff" stroke="#363636" stroke-width="3">
          <path d="M0,0H80A10,10,0,0,1,90,10V26A10,10,0,0,1,80,36H0a0,0,0,0,1,0,0V0A0,0,0,0,1,0,0Z" stroke="none"/>
          <path d="M3,1.5H80A8.5,8.5,0,0,1,88.5,10V26A8.5,8.5,0,0,1,80,34.5H3A1.5,1.5,0,0,1,1.5,33V3A1.5,1.5,0,0,1,3,1.5Z" fill="none"/>
        </g>
      </g>
    </g>
    <g id="Normal_Raised_Light-17" data-name="Normal Raised Light" transform="translate(-47 75)">
      <g transform="matrix(1, 0, 0, 1, 47, -75)" filter="url(#Rectangle_182-17)">
        <g id="Rectangle_182-35" data-name="Rectangle 182" transform="translate(-47 75)" fill="#fff" stroke="#363636" stroke-width="3">
          <rect width="90" height="36" rx="5" stroke="none"/>
          <rect x="1.5" y="1.5" width="87" height="33" rx="3.5" fill="none"/>
        </g>
      </g>
    </g>
    <g id="Normal_Raised_Light-18" data-name="Normal Raised Light" transform="translate(-47 183)">
      <g transform="matrix(1, 0, 0, 1, 47, -183)" filter="url(#Rectangle_182-18)">
        <g id="Rectangle_182-36" data-name="Rectangle 182" transform="translate(-47 183)" fill="#fff" stroke="#363636" stroke-width="3">
          <path d="M0,0H90a0,0,0,0,1,0,0V16A20,20,0,0,1,70,36H0a0,0,0,0,1,0,0V0A0,0,0,0,1,0,0Z" stroke="none"/>
          <path d="M3,1.5H87A1.5,1.5,0,0,1,88.5,3V16A18.5,18.5,0,0,1,70,34.5H3A1.5,1.5,0,0,1,1.5,33V3A1.5,1.5,0,0,1,3,1.5Z" fill="none"/>
        </g>
      </g>
    </g>
  </g>
</svg>
