<svg xmlns="http://www.w3.org/2000/svg" width="1000" height="241" viewBox="0 0 1000 241">
  <metadata><?xpacket begin="﻿" id="W5M0MpCehiHzreSzNTczkc9d"?>
<x:xmpmeta xmlns:x="adobe:ns:meta/" x:xmptk="Adobe XMP Core 5.6-c142 79.160924, 2017/07/13-01:06:39        ">
   <rdf:RDF xmlns:rdf="http://www.w3.org/1999/02/22-rdf-syntax-ns#">
      <rdf:Description rdf:about=""
            xmlns:xmp="http://ns.adobe.com/xap/1.0/">
         <xmp:CreatorTool>Adobe Photoshop CC (Windows)</xmp:CreatorTool>
      </rdf:Description>
   </rdf:RDF>
</x:xmpmeta>
                                                                                                    
                                                                                                    
                                                                                                    
                                                                                                    
                                                                                                    
                                                                                                    
                                                                                                    
                                                                                                    
                                                                                                    
                                                                                                    
                                                                                                    
                                                                                                    
                                                                                                    
                                                                                                    
                                                                                                    
                                                                                                    
                                                                                                    
                                                                                                    
                                                                                                    
                                                                                                    
                           
<?xpacket end="w"?></metadata>
<defs>
    <style>
      .cls-1 {
        fill: #f26c4f;
      }

      .cls-1, .cls-2 {
        fill-rule: evenodd;
      }

      .cls-2 {
        fill: #fff;
      }
    </style>
  </defs>
  <path id="Rectangle_2_copy" data-name="Rectangle 2 copy" class="cls-1" d="M64,0h936L935,241H0Z"/>
  <path id="NutellaRlz" class="cls-2" d="M203.952,59.541h-23.19q-12.948,60.854-15.234,72.786t-3.3,18.366h-0.338L133.113,59.541H102.9L76.745,183.278H100.02l12.272-58.229q2.877-14.388,5.586-32.67l0.339-2.708h0.508l30.13,93.607H177.8Zm10.58,80.234A93.152,93.152,0,0,0,212.5,157.8q0,13.2,6.178,20.185t17.858,6.982q17.773,0,30.046-19.212h0.507l-1.777,17.52h19.466l20.059-94.623H279.363l-8.3,39.187q-3.639,17.265-9.987,26.914T246.947,164.4q-9.141,0-9.14-10.41a44.746,44.746,0,0,1,1.354-10.072l11.6-55.267H225.281Zm129.323,18.366a23.18,23.18,0,0,1,.508-4.486l9.733-45.618h23.867L382.2,88.655H358.243l4.147-20.143H345.971L334.8,88.486,318.21,95.6l-2.454,12.442H328.62l-9.733,45.618a50.367,50.367,0,0,0-1.015,9.48q0,11.171,5.966,16.5T342.5,184.97q13.118,0,22.513-4.485V161.442Q356.8,164.406,351.3,164.4q-7.449,0-7.448-6.263h0Zm102.832-44.857q0,7.026-7.321,11.13t-20.44,4.105h-3.808a32.665,32.665,0,0,1,8.633-16.5q6.6-6.771,14.049-6.771,8.887,0,8.887,8.04h0Zm10.241,64.408V158.48a88.552,88.552,0,0,1-14.558,5.67A51.674,51.674,0,0,1,429,165.758q-8.125,0-12.484-4.443t-4.358-12.145v-1.693l0.169-1.777h4.316q26.236,0,40.371-8.591t14.134-24.417q0-12.016-8.378-18.916t-23.36-6.9a49.315,49.315,0,0,0-27,7.575q-11.933,7.576-18.916,22.005a72.4,72.4,0,0,0-6.982,31.95q0,17.436,9.818,27t27.591,9.563q18.45,0,33.008-7.278h0ZM532,51.585H506.524l-27.93,131.693H504.07Zm51.459,0H557.982L530.053,183.278h25.475ZM639.74,171.006h0.339l-1.185,12.272h19.381l20.144-94.623H658.783l-4.824,12.1h-0.677a23.8,23.8,0,0,0-9.268-10.325,27.193,27.193,0,0,0-14.176-3.555q-11.85,0-21.751,8.337t-16,23.528A85.036,85.036,0,0,0,586,150.693q0,16.249,7.151,25.264t19.593,9.013q15.657,0,27-13.964h0ZM614.646,160.68q-2.836-3.723-2.836-11.172a66.7,66.7,0,0,1,3.09-19.8q3.088-9.987,8.294-16.081t10.96-6.094a10.606,10.606,0,0,1,8.591,3.936A15.077,15.077,0,0,1,646,121.409a67.907,67.907,0,0,1-3.3,21.963q-3.3,9.693-8.717,15.362t-11.257,5.67A9.549,9.549,0,0,1,614.646,160.68Zm118.7-79.642h6.263q8.633,0,12.653,3.47t4.02,10.41q0,9.9-6.178,14.727t-17.266,4.824h-6.6ZM731.823,135.8l17.52,47.481h28.1l-22.09-52.559q13.2-4.653,20.228-14.261t7.025-22.978q0-16.673-10.072-25.306T742.4,59.541H712.019L685.866,183.278H711.68L721.752,135.8h10.071ZM843.458,51.585H817.982L790.053,183.278h25.475Zm62.376,111.973H868.679l47.9-57.976,3.639-16.927H856.745l-4.316,19.72h33.6l-48.665,59.668L834.4,183.278h67.285Z"/>
</svg>
