<?xml version="1.0" encoding="utf-8"?>
<!-- Generator: Adobe Illustrator 25.4.1, SVG Export Plug-In . SVG Version: 6.00 Build 0)  -->
<svg version="1.1" id="Layer_1" xmlns="http://www.w3.org/2000/svg" xmlns:xlink="http://www.w3.org/1999/xlink" x="0px" y="0px"
	 viewBox="0 0 147 37" style="enable-background:new 0 0 147 37;" xml:space="preserve">
<style type="text/css">
	.st0{fill:#FFFFFF;}
	.st1{fill:#3A8F10;}
</style>
<polygon class="st0" points="137,37 0,37 10,0 147,0 "/>
<g>
	<g>
		<path class="st1" d="M35.8,9.1v1.7h1.7v8.1c0,0-0.2,0-0.4,0.1S36.8,19,36.8,19c-0.1,0-0.2,0-0.3,0.1c-0.1,0-0.2,0.1-0.2,0.1l0,0
			v0.1c0,0,0,0,0,0c0,0,0,0.1,0.1,0.1s0.1,0,0.1,0c0,0,0.1,0,0.3,0c0.2,0,0.3,0,0.3,0c0.1,0,0.2,0.1,0.3,0.2s0.2,0.2,0.2,0.2v6.3
			h-1.7v1.7h-8.2c0-0.1,0-0.2-0.1-0.4c0-0.2-0.1-0.4-0.1-0.4c0,0,0-0.1-0.1-0.3c0-0.2-0.1-0.3-0.1-0.3c0-0.1-0.1-0.2-0.1-0.3
			c0-0.1-0.1-0.2-0.1-0.2l0,0c0,0,0,0,0,0s0,0,0,0h0c0,0,0,0-0.1,0.1c0,0-0.1,0.1-0.1,0.1c0,0,0,0.1,0,0.2c0,0.1,0,0.2,0,0.3
			c0,0.1,0,0.2,0,0.3c0,0.1,0,0.2,0,0.2c0,0,0,0.1,0,0.2c0,0.1-0.1,0.1-0.1,0.2c0,0,0,0-0.1,0.1c0,0-0.1,0.1-0.1,0.1
			c0,0-0.1,0.1-0.2,0.1c-0.1,0-0.1,0-0.1,0h-3.6V9.1H35.8z M28.8,22.8h2.6v-5.8c0,0,0-0.1,0.1-0.1c0,0,0.1-0.1,0.1-0.1
			c0,0,0.1-0.1,0.1-0.1c0,0,0.1-0.1,0.2-0.2c0.1-0.1,0.2-0.2,0.2-0.2c0,0,0.1-0.1,0.2-0.1c0.1,0,0.1-0.1,0.1-0.1c0.1,0,0.2,0,0.5,0
			c0.2,0,0.4,0,0.7,0c0.2,0,0.5,0,0.7,0c0.2,0,0.4,0,0.4,0c0.1,0,0.2,0,0.4-0.1s0.4-0.1,0.5-0.1c0,0,0.1,0,0.2-0.1
			c0.1,0,0.2-0.1,0.2-0.1l0.1-0.1c0,0,0-0.1,0-0.1c0,0,0,0,0,0c-0.1,0-0.3,0-0.5,0c-0.2,0-0.5,0-0.8,0s-0.5,0-0.8,0
			c-0.2,0-0.4,0-0.5,0c0,0-0.1,0-0.2,0c-0.1,0-0.2,0-0.3,0c-0.1,0-0.2,0-0.3,0c-0.1,0-0.1,0-0.2,0h-0.3h-0.2c0,0-0.1,0-0.1,0.1
			s-0.1,0.1-0.2,0.1c-0.1,0-0.1,0.1-0.2,0.1s-0.1,0.1-0.1,0.1c0,0-0.1,0-0.1,0c0,0-0.1,0-0.1,0v-1.6h-2.6V22.8z"/>
		<path class="st1" d="M41.3,19.4v-1.8h-2V16H42c0,0-0.2-0.1-0.4-0.1c-0.2-0.1-0.3-0.1-0.4-0.1c0,0-0.1,0-0.2,0c-0.1,0-0.2,0-0.4,0
			c-0.1,0-0.3,0-0.4,0c-0.1,0-0.2,0-0.2,0c-0.1,0-0.3-0.1-0.5-0.1c-0.2,0-0.3-0.1-0.3-0.1V9.1h6.1v6.8h2c0,0,0-0.1,0-0.3
			c0-0.1,0-0.3,0-0.4c0-0.1,0-0.3,0-0.4c0-0.1,0-0.2,0-0.3c0,0,0-0.1,0.1-0.2s0.1-0.1,0.1-0.1c0,0,0.1,0,0.1-0.1
			c0.1,0,0.1-0.1,0.2-0.1c0,0,0.1,0,0.3,0c0.2,0,0.3,0,0.3,0v-0.3c0,0-0.1,0-0.3-0.1s-0.3-0.1-0.3-0.1c0,0-0.1,0-0.1,0
			c0,0-0.1,0-0.1,0c-0.1,0-0.1,0-0.2-0.1V9.1h6.1v1.4c0,0-0.1,0-0.2,0c-0.1,0-0.1,0-0.2,0c0,0-0.1-0.1-0.2-0.2s-0.2-0.1-0.2-0.2
			c0,0-0.1,0-0.1,0c0,0-0.1,0-0.1,0c0,0-0.1,0-0.1,0c0,0-0.1,0-0.2,0c-0.1,0-0.2,0-0.3,0c-0.1,0-0.2,0-0.3,0c-0.1,0-0.1,0-0.2,0
			c-0.1,0-0.2,0-0.3,0c-0.1,0-0.2,0-0.3,0c-0.1,0-0.2,0-0.3,0c-0.1,0-0.1,0-0.1,0c-0.1,0-0.2,0-0.3,0s-0.3,0-0.5,0
			c-0.2,0-0.4,0-0.5,0s-0.3,0-0.3,0c0,0,0,0.1,0.1,0.1c0,0,0.1,0.1,0.1,0.1c0,0,0.1,0,0.2,0.1c0.1,0,0.2,0.1,0.2,0.1
			c0,0,0.1,0,0.2,0c0.1,0,0.2,0,0.2,0c0.1,0,0.2,0,0.2,0c0.1,0,0.1,0,0.1,0c0.1,0,0.3,0,0.5,0c0.2,0,0.5,0,0.8,0c0.3,0,0.5,0,0.8,0
			c0.2,0,0.4,0,0.5,0c0,0,0.1,0.1,0.2,0.1c0.1,0.1,0.1,0.1,0.2,0.2s0.1,0.2,0.2,0.2c0.1,0.1,0.1,0.1,0.2,0.2c0,0,0,0.1,0.1,0.1
			c0,0.1,0.1,0.1,0.1,0.1v5.7h-2v1.8h-1.9v8.5h-2l-0.1-0.1c0,0-0.1-0.1-0.1-0.2c-0.1-0.1-0.2-0.2-0.2-0.3c-0.1-0.1-0.2-0.2-0.2-0.3
			c-0.1-0.1-0.1-0.1-0.1-0.2c0,0,0,0,0,0c0,0,0,0,0,0c0,0,0,0-0.1,0h-0.1c0,0,0,0,0,0c0,0,0,0.1,0,0.1c0,0.1,0,0.1,0,0.1
			c0,0.1,0,0.2,0.1,0.3c0,0.2,0.1,0.2,0.1,0.3l0.1,0.1v0.1v0c0,0,0,0,0,0h-3.4v-8.5H41.3z"/>
		<path class="st1" d="M56.3,25.2L56.3,25.2L56.3,25.2c0-0.1,0-0.1,0-0.1c0,0-0.1,0-0.2-0.1c-0.1,0-0.2-0.1-0.3-0.1
			c0,0-0.1-0.1-0.3-0.1c-0.2,0-0.3-0.1-0.3-0.1V9.1h6v3h2.4v3.2h1.5v-2.5h0.2c0,0,0.2,0,0.3,0c0.2,0,0.4,0,0.6,0.1
			c0.2,0,0.4,0,0.6,0.1c0.2,0,0.3,0,0.4,0c0.1,0,0.2,0,0.3,0s0.3,0,0.5,0c0.2,0,0.3,0,0.5,0c0.2,0,0.3,0,0.3,0c0,0,0,0,0,0
			c0,0,0,0,0-0.1c0,0-0.1,0-0.2-0.1c-0.1,0-0.2-0.1-0.3-0.1s-0.2,0-0.3-0.1s-0.2-0.1-0.3-0.1c-0.1,0-0.3-0.1-0.4-0.1
			c0,0-0.1,0-0.3,0c-0.1,0-0.3,0-0.5,0c-0.2,0-0.3,0-0.5,0s-0.2,0-0.3,0c0,0-0.1,0-0.2-0.1c-0.1,0-0.2-0.1-0.2-0.1
			c0,0-0.1-0.1-0.2-0.2c-0.1-0.1-0.1-0.1-0.1-0.1V9.1h5.9v18.8h-3.4c0,0-0.1,0-0.2-0.1s-0.1-0.1-0.2-0.2c0,0,0-0.1-0.1-0.2
			c0-0.1-0.1-0.1-0.1-0.2c0,0,0-0.1-0.1-0.3c0-0.2-0.1-0.3-0.1-0.3c0,0,0-0.1,0-0.2c0-0.1,0-0.2,0-0.3c0-0.1,0-0.2,0-0.3
			c0-0.1,0-0.2,0-0.2c0-0.1-0.1-0.3-0.1-0.4c0-0.2-0.1-0.3-0.1-0.3h-0.1c0,0.1,0,0.2,0,0.5c0,0.2,0,0.5,0,0.7s0,0.5,0,0.7
			c0,0.2,0,0.4,0,0.5c0,0.1,0,0.2-0.1,0.4c0,0.2-0.1,0.2-0.1,0.2h-1.3v-3h-2.3v-1.4c0,0,0-0.1,0.1-0.1c0.1-0.1,0.1-0.1,0.2-0.2
			c0,0,0.1,0,0.2-0.1c0.1,0,0.1-0.1,0.2-0.1h3c0,0-0.1-0.1-0.2-0.2c-0.1-0.1-0.2-0.1-0.2-0.1c0,0-0.1,0-0.2,0c-0.1,0-0.3,0-0.4,0
			c-0.2,0-0.3,0-0.5,0c-0.2,0-0.3,0-0.3,0c0,0-0.1,0-0.3,0c-0.2,0-0.3,0-0.4,0c-0.1,0-0.2,0-0.4,0c-0.2,0-0.2,0-0.3,0
			c0,0-0.1,0-0.2,0c-0.1,0-0.1,0.1-0.2,0.1v-1h-1.5v6.2h-6v-2.2c0,0,0-0.1,0.1-0.1c0.1-0.1,0.1-0.1,0.2-0.2c0.1,0,0.2-0.1,0.4-0.1
			C56.1,25.2,56.2,25.2,56.3,25.2z"/>
		<path class="st1" d="M73.1,12.8V9.1h6v2.3h1.8V14H84c0,0,0-0.1,0-0.2c0-0.1,0.1-0.2,0.1-0.2h0h0.1c0.1,0,0.2,0,0.4,0
			c0.2,0,0.4,0,0.6,0s0.4,0,0.5,0s0.2,0,0.3,0c0,0,0.1,0,0.2,0c0.1,0,0.2,0,0.3,0c0.1,0,0.2,0,0.3,0c0.1,0,0.2,0,0.2,0
			c0,0,0.1,0.2,0.1,0.4s0.1,0.3,0.1,0.4c0,0,0,0.1,0,0.2c0,0.1,0,0.2,0,0.3c0,0.1,0,0.2,0,0.3c0,0.1,0,0.2,0,0.2s0,0.1,0.1,0.2
			s0.1,0.1,0.1,0.1v-2.1h0.5c0,0,0-0.1,0-0.1c0,0,0-0.1,0-0.1c0,0-0.1,0-0.1-0.1s-0.1-0.1-0.2-0.1s-0.1,0-0.2-0.1
			c-0.1,0-0.2-0.1-0.2-0.1c-0.1,0-0.2-0.1-0.3-0.1c-0.1,0-0.2,0-0.3,0c0,0-0.1,0-0.3,0c-0.1,0-0.3,0-0.4,0c-0.2,0-0.3,0-0.4,0
			c-0.1,0-0.2,0-0.3,0c0,0-0.1-0.1-0.2-0.2c-0.1-0.1-0.2-0.2-0.2-0.2c0,0-0.1,0-0.2-0.1s-0.1-0.1-0.2-0.1c0,0-0.1,0-0.2,0
			c-0.1,0-0.2,0-0.2,0v-1.1h1.7V9.1h6v7.7h-4l0.5,0.3c0.1,0,0.2,0,0.4,0s0.4,0,0.6,0s0.4,0,0.6,0c0.2,0,0.3,0,0.4,0
			c0,0,0.1,0,0.2,0.1s0.2,0.1,0.2,0.1c0,0,0.1,0,0.2,0c0.1,0,0.2,0,0.3,0c0.1,0,0.2,0,0.3,0c0.1,0,0.2,0,0.2,0v10.4h-2V27h-0.4
			c0,0.1-0.1,0.2-0.1,0.4c-0.1,0.2-0.1,0.3-0.2,0.4c0,0,0,0.1-0.1,0.1s-0.1,0-0.1,0h-3.2v-8h-1.2v2.2h-4.5v-2.2h-1.2v4
			c0,0-0.1,0.1-0.2,0.2c-0.1,0.1-0.2,0.1-0.3,0.2h-0.2h-0.2c-0.1,0-0.3-0.1-0.5-0.1c-0.2,0-0.4,0-0.4,0c0,0-0.1-0.1-0.2-0.1
			c-0.1-0.1-0.1-0.1-0.2-0.2c0,0-0.1-0.1-0.1-0.2c-0.1-0.1-0.1-0.2-0.2-0.3c-0.1-0.1-0.1-0.2-0.2-0.3c-0.1-0.1-0.1-0.2-0.1-0.2
			c0,0-0.1,0.1-0.1,0.1c0,0.1,0,0.1,0,0.2c0,0,0,0.1,0,0.3c0,0.2,0.1,0.3,0.1,0.3c0,0,0,0.1,0.1,0.2c0,0.1,0.1,0.2,0.1,0.2
			c0,0,0,0.1,0.1,0.2c0,0.1,0.1,0.1,0.1,0.2l0.3,0.3c0.1,0,0.3,0,0.4,0c0.1,0,0.2,0,0.3,0c0.1,0,0.2,0,0.3,0c0,0,0.1,0,0.2,0
			c0.1,0,0.2,0,0.3,0c0.1,0,0.2,0,0.3,0c0.1,0,0.2,0,0.2,0c0,0,0.1,0,0.1,0.1s0,0.1,0,0.1c0,0,0,0.1,0,0.2c0,0.1,0,0.2,0,0.2
			c0,0,0,0.1,0,0.1c0,0,0,0.1,0,0.1v0.1c0,0-0.1,0.1-0.3,0.1s-0.3,0.1-0.3,0.1H78h-0.4c0,0-0.1-0.1-0.3-0.1
			c-0.1-0.1-0.2-0.1-0.3-0.2c0,0-0.1-0.1-0.1-0.1c-0.1-0.1-0.2-0.1-0.2-0.2c-0.1-0.1-0.2-0.1-0.2-0.2c-0.1-0.1-0.1-0.1-0.1-0.1
			c0,0,0,0,0,0c0,0,0,0-0.1,0c0,0,0,0.1,0,0.1c0,0.1,0,0.1,0,0.1c0,0,0.1,0.1,0.1,0.3c0.1,0.2,0.1,0.3,0.2,0.3c0,0,0.1,0.1,0.1,0.2
			c0.1,0.1,0.1,0.1,0.1,0.1c0,0,0.2,0,0.4,0s0.5,0.1,0.6,0.1c0,0,0.1,0,0.2,0c0.1,0,0.2,0,0.3,0c0.1,0,0.2,0,0.3,0
			c0.1,0,0.2,0,0.2,0v1.5h-5.9V13.8c0,0,0,0,0.1-0.1s0.1-0.1,0.2-0.1c0,0,0.1-0.1,0.3-0.1s0.3-0.1,0.5-0.2c0.2-0.1,0.3-0.1,0.5-0.2
			c0.1-0.1,0.2-0.1,0.3-0.1c0,0,0.1-0.1,0.2-0.1c0.1,0,0.1-0.1,0.1-0.1H73.1z"/>
		<path class="st1" d="M104,9.1c0,0,0.1,0.1,0.2,0.2c0.1,0.1,0.2,0.1,0.2,0.1c0.1,0,0.2,0,0.3-0.1c0.2-0.1,0.2-0.1,0.3-0.2h3.1v14.7
			c0,0-0.1,0-0.2,0c-0.1,0-0.2,0-0.2,0c0,0-0.1,0-0.3-0.1c-0.2-0.1-0.3-0.1-0.3-0.1c0,0-0.1,0-0.3,0c-0.1,0-0.3,0-0.5,0
			s-0.3,0-0.5,0c-0.2,0-0.3,0-0.4,0c0,0-0.1,0-0.2,0s-0.2,0-0.3,0c-0.1,0-0.2,0-0.3,0c-0.1,0-0.2,0-0.3,0c-0.1,0-0.1,0-0.3,0
			c-0.1,0-0.2,0-0.3,0c-0.1,0-0.2,0-0.3,0s-0.1,0-0.1,0c0,0-0.1,0-0.2,0c-0.1,0-0.2,0.1-0.2,0.1c0,0-0.2,0.1-0.3,0.1
			c-0.2,0.1-0.3,0.1-0.3,0.1l-0.1,0.1c0,0,0,0.1,0,0.1V24c0,0,0,0,0,0.1c0,0,0,0.1,0,0.1c0,0,0-0.1,0.1-0.1s0.1,0,0.1,0
			c0,0,0.1-0.1,0.2-0.1s0.1-0.1,0.2-0.1c0,0,0.1-0.1,0.3-0.1c0.2,0,0.2,0,0.3,0h0.9h0.9c0,0,0.1,0,0.1,0c0.1,0,0.2,0,0.3,0
			c0.1,0,0.2,0,0.3,0c0.1,0,0.2,0,0.2,0c0,0,0.1,0,0.2,0.1s0.2,0.1,0.2,0.1c0,0,0.1,0.1,0.2,0.1c0.1,0.1,0.2,0.1,0.2,0.1
			c0,0,0.1,0,0.3,0.1c0.2,0,0.3,0.1,0.3,0.1c0,0,0.1,0.1,0.2,0.1c0.1,0,0.1,0.1,0.2,0.1c0.1,0,0.1,0.1,0.2,0.1v3.1H102v-5h-2.1v5.1
			c-0.1,0-0.2,0-0.3,0c-0.1,0-0.3,0-0.5,0c-0.2,0-0.3,0-0.5,0c-0.1,0-0.2,0-0.3,0c-0.1,0-0.2,0-0.5-0.1c-0.2,0-0.4-0.1-0.4-0.1
			c0,0-0.1-0.1-0.3-0.2c-0.2-0.1-0.3-0.1-0.3-0.1c-0.1,0-0.2,0.1-0.3,0.2c-0.1,0.1-0.2,0.2-0.3,0.3h-2.5V9.1H104z M97.6,14.1h1.9
			v-1.8h-1.9V14.1z M98.8,18.8h0.8v-1h2.7v1h0.8v-3.2H102v-1.1h-2.1v1.1h-1.1V18.8z M102.4,14.1h1.9v-1.8h-1.9V14.1z"/>
		<path class="st1" d="M112.6,22c0,0-0.1,0-0.2-0.1c-0.1,0-0.2-0.1-0.2-0.1c0,0-0.1,0-0.2,0s-0.3-0.1-0.4-0.1s-0.3-0.1-0.4-0.1
			c-0.1,0-0.2,0-0.2-0.1l-0.6-0.6c0,0-0.1-0.1-0.1-0.2c0-0.1,0-0.1,0-0.1V9.1h14.4v13.4h-8.2v5.4h-2.3c0,0,0-0.1,0-0.2s0-0.2,0-0.2
			c0,0,0-0.1,0.1-0.2s0.1-0.2,0.1-0.2v-0.8v-0.9c0-0.1,0-0.2,0-0.4c0-0.2,0-0.4,0-0.6s0-0.4,0-0.6c0-0.2,0-0.3,0-0.4
			c0,0,0-0.1,0-0.3c0-0.2-0.1-0.3-0.1-0.3c0,0,0-0.1-0.1-0.2s-0.1-0.1-0.1-0.1v3.8c0,0,0,0.1,0,0.3c0,0.1-0.1,0.3-0.1,0.3
			c0,0,0,0.1-0.1,0.2c0,0.1-0.1,0.1-0.1,0.1c0,0-0.1,0.1-0.2,0.2s-0.2,0.2-0.2,0.3c-0.1,0.1-0.2,0.2-0.3,0.3h-2.5v-5.3
			c0,0,0.1,0,0.2-0.1c0.1,0,0.2-0.1,0.3-0.1c0,0,0.1,0,0.2,0c0.1,0,0.2,0,0.3-0.1c0.1,0,0.2,0,0.3-0.1c0.1,0,0.1,0,0.2,0
			c0,0,0.1,0,0.2,0c0.1,0,0.2-0.1,0.3-0.1c0.1,0,0.2-0.1,0.3-0.1C112.5,22,112.6,22,112.6,22z M116.3,17.9h2v-2.9h2.9
			c0,0-0.2-0.1-0.4-0.1c-0.2-0.1-0.3-0.1-0.4-0.1c0,0-0.1,0-0.2,0s-0.2,0-0.4,0c-0.1,0-0.3,0-0.4,0c-0.1,0-0.2,0-0.2,0
			c-0.1,0-0.2,0-0.3,0s-0.2,0-0.3-0.1c-0.1,0-0.2,0-0.4-0.1v-1h-2V17.9z"/>
	</g>
</g>
</svg>
